<?xml version="1.0" encoding="UTF-8" standalone="no"?>
<!-- Created with Inkscape (http://www.inkscape.org/) -->

<svg
   width="210mm"
   height="210mm"
   viewBox="0 0 210 210"
   version="1.1"
   id="svg1"
   xml:space="preserve"
   inkscape:version="1.4.3 (0d15f75, 2025-12-25)"
   sodipodi:docname="logo.svg"
   xmlns:inkscape="http://www.inkscape.org/namespaces/inkscape"
   xmlns:sodipodi="http://sodipodi.sourceforge.net/DTD/sodipodi-0.dtd"
   xmlns="http://www.w3.org/2000/svg"
   xmlns:svg="http://www.w3.org/2000/svg"><sodipodi:namedview
     id="namedview1"
     pagecolor="#505050"
     bordercolor="#eeeeee"
     borderopacity="1"
     inkscape:showpageshadow="0"
     inkscape:pageopacity="0"
     inkscape:pagecheckerboard="0"
     inkscape:deskcolor="#505050"
     inkscape:document-units="mm"
     inkscape:zoom="0.70710678"
     inkscape:cx="217.08178"
     inkscape:cy="306.17724"
     inkscape:window-width="1920"
     inkscape:window-height="1009"
     inkscape:window-x="-8"
     inkscape:window-y="-8"
     inkscape:window-maximized="1"
     inkscape:current-layer="layer1" /><defs
     id="defs1"><inkscape:path-effect
       effect="powerstroke"
       message=""
       id="path-effect2"
       is_visible="true"
       lpeversion="1.3"
       scale_width="1"
       interpolator_type="CubicBezierJohan"
       interpolator_beta="0.2"
       start_linecap_type="zerowidth"
       end_linecap_type="zerowidth"
       offset_points="0,4.9921382"
       linejoin_type="extrp_arc"
       miter_limit="4"
       not_jump="false"
       sort_points="true" /><inkscape:path-effect
       effect="fill_between_many"
       method="bsplinespiro"
       autoreverse="false"
       close="false"
       join="false"
       linkedpaths="#path2,0,1"
       id="path-effect3"
       is_visible="true"
       lpeversion="0" /></defs><g
     inkscape:label="Layer 1"
     inkscape:groupmode="layer"
     id="layer1"><path
       id="path3"
       style="fill:#f46197;fill-opacity:1;stroke-width:0.98004"
       d="M 21.885824,0.64100877 C 10.846247,0.7323306 0.68427546,8.4299342 0.68427546,19.388936 V 190.65105 c 0,14.6352 18.09231854,23.42526 32.19007454,16.16564 l 166.11847,-85.63107 a 20.937784,18.601311 0 0 0 0,-32.308462 L 32.87435,3.2460988 C 29.343384,1.4253966 25.565687,0.6105672 21.885824,0.64100877 Z M 59.392597,40.361938 c 28.096163,0 50.891153,21.410297 50.891153,47.84289 0,30.263042 -31.86009,66.537812 -45.166007,80.362912 -3.127683,3.247 -8.349028,3.247 -11.476711,0 C 40.335106,154.74264 8.4750195,118.46787 8.4750195,88.204828 h 0.026407 c 0,-26.432593 22.7950115,-47.84289 50.8911755,-47.84289 z m 0,32.469989 c -9.356552,0 -16.963731,7.280377 -16.963731,16.234988 0,8.954624 7.607179,16.234995 16.963731,16.234995 9.356552,0 16.963719,-7.280371 16.963719,-16.234995 0,-8.954611 -7.607167,-16.234988 -16.963719,-16.234988 z" /></g></svg>
